<svg id="Group_12" data-name="Group 12" xmlns="http://www.w3.org/2000/svg" width="410" height="332.14" viewBox="0 0 410 332.14">
  <path id="Path_65" data-name="Path 65" d="M65.109,0,38,52.879h5.473V96H15.89L0,126.992,196.884,227.935l65.109-126.992Z" fill="#efe8dc"/>
  <rect id="Rectangle_66" data-name="Rectangle 66" width="301.848" height="151.437" transform="translate(59.384 34.399)" fill="#033139"/>
  <rect id="Rectangle_67" data-name="Rectangle 67" width="222.792" height="0.513" transform="translate(101.736 88.814)" fill="#19afc9" opacity="0.3"/>
  <rect id="Rectangle_68" data-name="Rectangle 68" width="222.792" height="0.513" transform="translate(101.992 101.647)" fill="#19afc9" opacity="0.3"/>
  <rect id="Rectangle_69" data-name="Rectangle 69" width="222.792" height="0.513" transform="translate(101.992 127.315)" fill="#19afc9" opacity="0.3"/>
  <rect id="Rectangle_70" data-name="Rectangle 70" width="222.792" height="0.513" transform="translate(101.992 138.608)" fill="#19afc9" opacity="0.3"/>
  <rect id="Rectangle_71" data-name="Rectangle 71" width="222.792" height="0.513" transform="translate(101.992 114.481)" fill="#19afc9" opacity="0.3"/>
  <ellipse id="Ellipse_22" data-name="Ellipse 22" cx="95.482" cy="8.727" rx="95.482" ry="8.727" transform="translate(195.421 314.686)" fill="#033139"/>
  <path id="Path_66" data-name="Path 66" d="M210.05,220.915l-.708-.743L242.5,188.563l29.233,21.028,23.64-26.209,10.366,8.811,28.2-16.919,31.321,21.052,49.159-27.961.507.892-49.711,28.276L333.911,176.49,305.64,193.452l-10.168-8.643-23.588,26.152L242.6,189.894Z" transform="translate(-101.877 -81.935)" fill="#19afc9"/>
  <path id="Path_67" data-name="Path 67" d="M596.725,705.415c2.413,8.919,10.677,14.442,10.677,14.442s4.352-8.937,1.94-17.855-10.677-14.443-10.677-14.443S594.313,696.5,596.725,705.415Z" transform="translate(-393.052 -399.539)" fill="#033139"/>
  <path id="Path_68" data-name="Path 68" d="M588.636,711.984c6.621,6.445,7.429,16.352,7.429,16.352s-9.925-.542-16.546-6.987S572.091,705,572.091,705,582.016,705.54,588.636,711.984Z" transform="translate(-381.418 -408.026)" fill="#19afc9"/>
  <circle id="Ellipse_23" data-name="Ellipse 23" cx="17.197" cy="17.197" r="17.197" transform="translate(375.606 10.271)" fill="#19afc9" opacity="0.4"/>
  <circle id="Ellipse_24" data-name="Ellipse 24" cx="12.064" cy="12.064" r="12.064" transform="translate(348.912 23.618)" fill="#19afc9" opacity="0.4"/>
  <circle id="Ellipse_25" data-name="Ellipse 25" cx="6.417" cy="6.417" r="6.417" transform="translate(339.672 250.518)" fill="#19afc9" opacity="0.4"/>
  <circle id="Ellipse_26" data-name="Ellipse 26" cx="4.877" cy="4.877" r="4.877" transform="translate(231.869 285.425)" fill="#19afc9" opacity="0.4"/>
  <circle id="Ellipse_27" data-name="Ellipse 27" cx="6.417" cy="6.417" r="6.417" transform="translate(213.902 219.204)" fill="#19afc9" opacity="0.4"/>
  <circle id="Ellipse_28" data-name="Ellipse 28" cx="6.674" cy="6.674" r="6.674" transform="translate(305.534 82.397)" fill="#19afc9"/>
  <path id="Path_69" data-name="Path 69" d="M717.95,534.94l-5.657.629a76.112,76.112,0,0,0,0,26.4c2.514,15.086,5.657,30.172,5.657,30.172s2.514,49.03,3.772,49.659,12.572,4.4,13.2.629.629-89.889.629-89.889l8.8,41.487s1.257,52.174,3.772,52.174,10.686-.629,10.686-5.029,1.886-62.231,1.886-62.231-.629-42.744-3.143-44S717.95,534.94,717.95,534.94Z" transform="translate(-449.104 -324.995)" fill="#001a1e"/>
  <path id="Path_70" data-name="Path 70" d="M725.983,739.7s-5.657-.629-6.914,0-3.143,5.029,0,7.543,11.315,6.286,13.829,6.286a13,13,0,0,0,5.029-1.257l-1.257-10.686Z" transform="translate(-452.108 -424.776)" fill="#001a1e"/>
  <path id="Path_71" data-name="Path 71" d="M783.149,741.791l.629,8.8s8.172,1.257,8.8,0,6.914-4.4,7.543-5.029,1.257-7.543-2.514-8.172-5.029,1.257-5.029,1.257Z" transform="translate(-484.13 -423.728)" fill="#001a1e"/>
  <path id="Path_72" data-name="Path 72" d="M667.622,432.612s-15.086,14.458-13.2,22,16.972,29.544,16.972,29.544,14.458,7.543,16.343,0S677.68,478.5,677.68,478.5l-9.429-22.629,10.686-15.086Z" transform="translate(-421.405 -275.468)" fill="#ffb8b8"/>
  <path id="Path_73" data-name="Path 73" d="M804.532,342.919s13.743-8.838,13.425-14.909-8.6-25.215-8.6-25.215-6.481-13.475-9.058-7.968,3.386,11.369,3.386,11.369l3.849,18.779-10.46,9.979Z" transform="translate(-490.906 -207.771)" fill="#ffb8b8"/>
  <circle id="Ellipse_29" data-name="Ellipse 29" cx="11.315" cy="11.315" r="11.315" transform="translate(268.218 99.942)" fill="#ffb8b8"/>
  <path id="Path_74" data-name="Path 74" d="M734.169,352.926l1.886,11.943,13.829-2.514s-.629-11.943-.629-13.2S734.169,352.926,734.169,352.926Z" transform="translate(-460.294 -234.755)" fill="#ffb8b8"/>
  <path id="Path_75" data-name="Path 75" d="M716.856,377.331s15.715-3.772,17.6-2.514,11.315,2.514,11.315,2.514l10.686,16.343-3.143,20.744s-.629,33.315.629,38.973,8.172,6.286-6.286,7.543-16.972-.629-27.03,1.886-18.229-1.257-15.715-3.772,6.914-42.744,1.886-46.516-6.915-23.258-6.915-23.258S716.856,380.474,716.856,377.331Z" transform="translate(-443.609 -247.217)" fill="#19afc9"/>
  <path id="Path_76" data-name="Path 76" d="M785.6,378.269l1.886-1.886,3.771-3.772s12.258,5.343,11.629,7.229-4.714,12.886-4.714,12.886l-5.657,1.886Z" transform="translate(-485.322 -246.269)" fill="#19afc9"/>
  <path id="Path_77" data-name="Path 77" d="M694.912,404.481l-7.543-1.257s-5.657,6.286-7.543,8.8-5.657,8.8-5.657,8.8l13.2,9.429,10.057-10.686Z" transform="translate(-431.094 -261.167)" fill="#19afc9"/>
  <path id="Path_78" data-name="Path 78" d="M735.808,313.75l-.116-.906a7.124,7.124,0,0,0-2.264.356,3.72,3.72,0,0,1,.14-1.629,7.241,7.241,0,0,0-2.1.911l-.457-1.654-6.284,3.1c-2.256,1.112-4.634,2.333-5.923,4.492-1.438,2.407-1.187,5.5-.2,8.126s2.616,4.949,3.925,7.429a18.554,18.554,0,0,0,1.784,3.036c2.372,2.957,6.989,3.554,10.333,1.77a5.979,5.979,0,0,0,2.863-2.947,19.13,19.13,0,0,0,.572-2.44c.414-1.69.894-5.178,2.266-6.247.6-.47,1.8,1.089,2.3.51,1.286-1.489,1.016-3.784.217-5.582a40.737,40.737,0,0,0-2.681-5.23A24.821,24.821,0,0,0,735.808,313.75Z" transform="translate(-452.326 -216.201)" fill="#001a1e"/>
  <rect id="Rectangle_72" data-name="Rectangle 72" width="32.854" height="32.854" transform="translate(6.51 59.039)" fill="#033139"/>
</svg>
