<svg xmlns="http://www.w3.org/2000/svg" width="930" height="666.269" viewBox="0 0 930 666.269">
  <g id="image1" transform="translate(-230 -416.896)">
    <g id="Group_37" data-name="Group 37" transform="translate(230 416.896)">
      <g id="Group_8" data-name="Group 8" transform="translate(0 38.099)">
        <path id="Path_38" data-name="Path 38" d="M885.352,639.4H0V62L750.624,198.753Z" transform="translate(0 -62)" fill="#033139"/>
        <path id="Path_39" data-name="Path 39" d="M449.717,703.565H257.649s-3.893-57.1,19.142-57.75,20.44,25.306,49.315-10.382,63.915-33.742,68.457-12.653-8.76,37.959,15.573,32.769S469.508,663.983,449.717,703.565Z" transform="translate(-143.54 -163.642)" fill="#efe8dc"/>
        <path id="Path_40" data-name="Path 40" d="M349.256,703.583l-.648-.026c1.512-37.6,9.385-61.751,15.725-75.394,6.883-14.814,13.515-20.812,13.581-20.87l.431.485c-.065.058-6.62,6-13.448,20.71C358.593,642.073,350.763,666.129,349.256,703.583Z" transform="translate(-142.355 -163.647)" fill="#f2f2f2"/>
        <path id="Path_41" data-name="Path 41" d="M417.879,702.968l-.623-.181A100.655,100.655,0,0,1,442.6,660.625l.436.48a99.974,99.974,0,0,0-25.155,41.863Z" transform="translate(-141.464 -162.954)" fill="#f2f2f2"/>
        <path id="Path_42" data-name="Path 42" d="M287.727,703.1l-.643-.089a70.67,70.67,0,0,0-6.356-41.307A56.877,56.877,0,0,0,270.7,647.068l.449-.468a57.589,57.589,0,0,1,10.165,14.82A71.318,71.318,0,0,1,287.727,703.1Z" transform="translate(-143.367 -163.136)" fill="#f2f2f2"/>
        <path id="Path_44" data-name="Path 44" d="M480.346,704.281H225.418l-.059-.864c-.147-2.148-3.4-52.821,13.02-70.9a17.982,17.982,0,0,1,13.141-6.305c10.7-.3,17.428,3.7,22.853,6.922,10.225,6.066,16.979,10.073,41.538-20.281,26.605-32.883,55.311-39.958,71.813-36.024,10.662,2.542,18.011,9.727,20.162,19.713,2.036,9.455,1.388,18.34.867,25.478-.558,7.638-1,13.671,2.139,16.405,2.619,2.281,7.846,2.489,16.449.653,17.5-3.733,41.915-.539,54.17,15.3,6.594,8.519,11.788,24-.909,49.4Zm-253.187-1.853H479.2c9.461-19.195,9.756-35.411.847-46.922-11.242-14.526-34.829-18.349-52.319-14.617-9.347,1.994-14.916,1.665-18.052-1.068-3.836-3.342-3.365-9.783-2.77-17.937.513-7.021,1.151-15.758-.83-24.954-1.994-9.26-8.84-15.93-18.78-18.3-15.976-3.812-43.879,3.174-69.943,35.387-25.565,31.6-33.267,27.031-43.924,20.709-5.492-3.257-11.727-6.951-21.855-6.664a16.2,16.2,0,0,0-11.822,5.7c-14.757,16.249-12.955,61.816-12.593,68.667Z" transform="translate(-143.961 -164.055)" fill="#19afc9"/>
        <rect id="Rectangle_23" data-name="Rectangle 23" width="181.454" height="2.039" transform="translate(128.914 206.997)" fill="#19afc9"/>
        <rect id="Rectangle_24" data-name="Rectangle 24" width="181.454" height="2.039" transform="translate(128.914 221.269)" fill="#19afc9"/>
        <rect id="Rectangle_25" data-name="Rectangle 25" width="181.454" height="2.039" transform="translate(128.914 235.541)" fill="#19afc9"/>
        <rect id="Rectangle_26" data-name="Rectangle 26" width="181.454" height="2.039" transform="translate(128.914 141.526)" fill="#19afc9"/>
        <rect id="Rectangle_27" data-name="Rectangle 27" width="181.454" height="2.039" transform="translate(128.914 155.798)" fill="#19afc9"/>
        <rect id="Rectangle_28" data-name="Rectangle 28" width="181.454" height="2.039" transform="translate(128.914 170.069)" fill="#19afc9"/>
        <rect id="Rectangle_29" data-name="Rectangle 29" width="40.814" height="33.161" transform="translate(132.604 90.315)" fill="#efe8dc"/>
        <path id="Path_45" data-name="Path 45" d="M310.864,286.639H268.35V251.777h42.514Zm-40.814-1.7h39.113v-31.46H270.05Z" transform="translate(-143.398 -168.264)" fill="#19afc9"/>
        <circle id="Ellipse_20" data-name="Ellipse 20" cx="8.304" cy="8.304" r="8.304" transform="translate(84.013 92.805)" fill="#efe8dc"/>
        <rect id="Rectangle_30" data-name="Rectangle 30" width="181.454" height="2.039" transform="translate(361.901 439.984)" fill="#19afc9"/>
        <rect id="Rectangle_31" data-name="Rectangle 31" width="181.454" height="2.039" transform="translate(361.901 454.257)" fill="#19afc9"/>
        <rect id="Rectangle_32" data-name="Rectangle 32" width="181.454" height="2.039" transform="translate(361.901 468.528)" fill="#19afc9"/>
        <rect id="Rectangle_33" data-name="Rectangle 33" width="181.454" height="2.039" transform="translate(361.901 374.513)" fill="#19afc9"/>
        <rect id="Rectangle_34" data-name="Rectangle 34" width="181.454" height="2.039" transform="translate(361.901 388.785)" fill="#19afc9"/>
        <rect id="Rectangle_35" data-name="Rectangle 35" width="181.454" height="2.039" transform="translate(361.901 403.056)" fill="#19afc9"/>
        <rect id="Rectangle_36" data-name="Rectangle 36" width="40.814" height="33.161" transform="translate(365.592 323.302)" fill="#efe8dc"/>
        <path id="Path_46" data-name="Path 46" d="M540.864,516.639H498.35V481.777h42.514Zm-40.814-1.7h39.113v-31.46H500.05Z" transform="translate(-140.41 -165.277)" fill="#19afc9"/>
        <ellipse id="Ellipse_21" data-name="Ellipse 21" cx="8.304" cy="7.815" rx="8.304" ry="7.815" transform="translate(316.513 326.282)" fill="#efe8dc"/>
        <path id="Path_61" data-name="Path 61" d="M582.346,478.922a20.172,20.172,0,1,0,20.172,20.172,20.172,20.172,0,0,0-20.172-20.172Zm-3.48,29.2-8.677-8.677,2.434-2.434,6.251,6.251,13.194-13.195L594.5,492.5Z" transform="translate(-139.582 -165.314)" fill="#19afc9"/>
        <path id="Path_62" data-name="Path 62" d="M350.346,248.922a20.172,20.172,0,1,0,20.172,20.172,20.172,20.172,0,0,0-20.172-20.172Zm-3.48,29.2-8.677-8.677,2.434-2.434,6.251,6.251,13.194-13.195L362.5,262.5Z" transform="translate(-142.595 -168.301)" fill="#19afc9"/>
      </g>
      <path id="Path_43" data-name="Path 43" d="M1075.786,709.066H179V130.335h896.786Zm-894.738-2.023h892.691V132.359H181.047Z" transform="translate(-145.786 -130.335)" fill="#19afc9"/>
      <g id="Group_6" data-name="Group 6" transform="translate(567.251 69.231)">
        <path id="Path_12" data-name="Path 12" d="M784.091,578.084c0,75.1,44.644,101.319,99.716,101.319s99.717-26.222,99.717-101.319S883.807,407.45,883.807,407.45,784.091,502.986,784.091,578.084Z" transform="translate(-764.65 -159.117)" fill="#efe8dc"/>
        <path id="Path_13" data-name="Path 13" d="M698.691,548.5l-1.021-62.85-42.5-77.754,42.341,67.9-.459-28.26-29.292-56.255,29.17,48.777h0l-.826-50.827-31.366-44.785,31.236,36.793-.515-93.2L698.7,411.409l-.266-5.09,31.89-48.814L698.946,416.09l2.971,56.765.088-1.507,36.765-51.369-36.654,56.692.372,7.1.067.107-.031.582,7.539,144.017H699.991l-1.209-74.387L662.22,497.536Z" transform="translate(-575.902 -39.698)" fill="#033139"/>
        <path id="Path_14" data-name="Path 14" d="M900.113,724.539c0,21.521,12.793,29.035,28.575,29.035q.548,0,1.095-.012c.731-.016,1.456-.051,2.171-.1,14.243-1.008,25.309-8.909,25.309-28.923,0-20.713-26.468-46.849-28.457-48.783l0,0-.115-.111S900.113,703.018,900.113,724.539Z" transform="translate(-849.518 -170.431)" fill="#19afc9"/>
        <path id="Path_15" data-name="Path 15" d="M929.342,750.281l-10.452-14.6,10.477,16.207.028,1.677c.731-.016,1.456-.051,2.171-.1l-1.127-21.531.009-.167-.019-.031-.106-2.033,10.5-16.247L930.29,728.174l-.024.432-.851-16.268,8.992-16.788-9.1,13.933-.886-33.727,0-.115v.111l.148,26.6L919.611,691.8l8.989,12.835.237,14.565-8.359-13.979,8.393,16.122.132,8.1L916.869,709.99l12.18,22.281Z" transform="translate(-849.13 -170.432)" fill="#033139"/>
        <circle id="Ellipse_17" data-name="Ellipse 17" cx="14.133" cy="14.133" r="14.133" transform="translate(0 4.789)" fill="#efe8dc"/>
        <circle id="Ellipse_18" data-name="Ellipse 18" cx="14.133" cy="14.133" r="14.133" transform="translate(5.747 0)" fill="none" stroke="#033139" stroke-miterlimit="10" stroke-width="2"/>
        <rect id="Rectangle_21" data-name="Rectangle 21" width="31.927" height="31.927" transform="translate(103.409 22.097)" fill="#19afc9"/>
        <rect id="Rectangle_22" data-name="Rectangle 22" width="31.927" height="31.927" transform="translate(97.024 15.712)" fill="none" stroke="#033139" stroke-miterlimit="10" stroke-width="2"/>
        <path id="Path_21" data-name="Path 21" d="M808.292,706.082s2.874,18.2,7.663,21.072-24.9,9.578-24.9,9.578L786.262,708Z" transform="translate(-599.684 -171.716)" fill="#fbbebe"/>
        <path id="Path_22" data-name="Path 22" d="M790.344,489.082l-10.536,12.452,4.789,43.1,3.831,85.245s-7.662,73.751,0,75.667,42.144.958,41.186-3.831-1.916-8.62-3.831-15.325,1.916-30.65,1.916-30.65l-4.789-26.819,17.241-115.9Z" transform="translate(-617.174 -162.561)" fill="#001a1e"/>
        <path id="Path_23" data-name="Path 23" d="M771.425,725.044s10.536-1.915,11.494,0,19.156,22.03,22.03,22.03,23.945,19.156,1.916,20.114-58.426-16.283-58.426-16.283,5.356-24.373,5.073-23.2S771.425,729.834,771.425,725.044Z" transform="translate(-563.774 -172.48)" fill="#001a1e"/>
        <path id="Path_24" data-name="Path 24" d="M832.656,678.407S805.838,708.1,804.88,710.972s-15.325,0-15.325,0l-5.747-19.156,4.789-6.7,26.819-22.03Z" transform="translate(-613.512 -169.902)" fill="#fbbebe"/>
        <path id="Path_25" data-name="Path 25" d="M834.211,701.188,848.1,714.26s-17.719,27.156-17.719,30.029-.958,26.819-10.536,22.988-10.536-42.144-10.536-42.144.958-39.27,6.7-42.144,18.342-1.966,18.342-1.966S826.549,700.23,834.211,701.188Z" transform="translate(-653.379 -170.653)" fill="#001a1e"/>
        <path id="Path_26" data-name="Path 26" d="M801.972,399.907s4.789,15.325,5.747,19.156,6.705,14.367,6.705,30.65-1.916,35.439,0,37.355,32.565,109.19,19.156,120.684-57.468,49.806-60.342,54.6-3.831,16.283-9.578,14.367-27.777-21.072-28.734-24.9,12.452-10.536,12.452-10.536,26.819-39.27,33.523-38.312,5.747-4.789,4.789-7.662-2.874-4.789,0-4.789.958-7.663,0-11.494S762.7,523.465,762.7,523.465L704.276,497.6s2.873-69.92,23.945-89.076l4.789-11.494S786.647,393.2,801.972,399.907Z" transform="translate(-541.643 -158.631)" fill="#001a1e"/>
        <path id="Path_27" data-name="Path 27" d="M788.53,242.082s-4.789,33.523,6.7,35.439,21.072.958,21.072,1.916-28.734,30.65-28.734,30.65l-26.819-1.916L736.808,282.31s22.03-3.831,22.03-17.241.958-22.987.958-22.987Z" transform="translate(-552.145 -152.14)" fill="#fbbebe"/>
        <path id="Path_28" data-name="Path 28" d="M788.53,242.082s-4.789,33.523,6.7,35.439,21.072.958,21.072,1.916-28.734,30.65-28.734,30.65l-26.819-1.916L736.808,282.31s22.03-3.831,22.03-17.241.958-22.987.958-22.987Z" transform="translate(-552.145 -152.14)" opacity="0.1"/>
        <circle id="Ellipse_19" data-name="Ellipse 19" cx="29.692" cy="29.692" r="29.692" transform="translate(191.847 44.446)" fill="#fbbebe"/>
        <path id="Path_29" data-name="Path 29" d="M801.573,276.082s37.355,4.789,40.228,17.241-19.649,90.093-21.195,96.816-2.253,10.515-2.253,10.515c-2.722-1.549-20.442-8.1-31.147-5.8-18.2,3.831-44.059,1.916-44.059,1.916s-8.62-35.439-10.536-39.27-9.578-24.9-9.578-30.65-11.494-29.692-11.494-29.692,5.747-17.241,26.819-16.283c0,0,9.191-4.114,11.779-1.1s16.955,16.424,35.154,10.677S801.573,276.082,801.573,276.082Z" transform="translate(-553.694 -153.574)" fill="#033139"/>
        <path id="Path_30" data-name="Path 30" d="M713.967,293.082H724.5l5.747,75.667s-21.072,5.747-23.945,1.916S713.967,293.082,713.967,293.082Z" transform="translate(-436.396 -154.291)" fill="#033139"/>
        <path id="Path_31" data-name="Path 31" d="M730.586,364.076l2.873,7.662s1.916,24.9-9.578,23.945-18.2-15.325-18.2-15.325,6.7-18.2,14.367-16.283S730.586,364.076,730.586,364.076Z" transform="translate(-439.606 -157.281)" fill="#033139"/>
        <path id="Path_32" data-name="Path 32" d="M868.71,293.082l-18.2,4.789s-13.409,48.848-14.367,49.806-1.916,6.7-1.916,6.7,0,.958-1.916,3.831-4.789.958-2.873,4.789,4.789,1.916,2.873,5.747-.958,14.367-.958,14.367,4.789-18.2,22.03-13.409l11.494-51.722Z" transform="translate(-692.667 -154.291)" fill="#033139"/>
        <path id="Path_33" data-name="Path 33" d="M805.518,199.2c6.038,10.609,7.4,23.174,8.231,35.352.357,5.223.626,10.583-.923,15.584-1.633,5.273-5.268,10.63-3.4,15.826,1.8,5.025,7.831,7.036,11.2,11.18,2.853,3.512,3.569,8.323,3.322,12.841s-1.343,8.953-1.664,13.466a39.892,39.892,0,0,0,8.581,27.494c-14.427-.556-29.851-6.954-35.935-20.047-1.818-3.914-2.7-8.2-4.345-12.189-1.857-4.516-4.658-8.6-6.417-13.158-2.653-6.872-2.8-14.419-2.907-21.785-.066-4.409-.113-8.936,1.413-13.074,3.359-9.108,13.8-14.992,14.842-24.644a4.875,4.875,0,0,0-.431-3,7.963,7.963,0,0,0-1.751-1.771c-6.523-5.757-5.447-17.945-13.212-21.87-3.484-1.761-7.684-1.142-11.425-.027-4.155,1.238-8.3,3.155-11,6.545-5.443,6.825-3.3,16.684-1.611,25.25a150.739,150.739,0,0,1,2.576,37.749,24.434,24.434,0,0,1-.888,5.979c-1,3.161-3.132,5.817-4.742,8.716a28.793,28.793,0,0,0-3,19.557c1.188,5.8,4.139,11.985,1.541,17.309a15.63,15.63,0,0,1-4.661,5.182c-8.488,6.653-19.263,10.775-25.575,19.521-1.087-7.143.987-14.332,2.517-21.394s2.462-14.749-.683-21.254c-1.38-2.854-3.49-5.337-4.618-8.3-2.605-6.841.5-14.345,2.386-21.419a127.5,127.5,0,0,0,2.913-16.879l1.945-15.346c1.608-12.686,3.29-25.631,8.861-37.142,10.5-21.692,34.256-29.748,55.527-17.729A35.968,35.968,0,0,1,805.518,199.2Z" transform="translate(-550.159 -149.526)" fill="#ee5473"/>
        <path id="Path_34" data-name="Path 34" d="M747.733,367.3s5.747,17.241-.958,17.241-19.156-10.536-20.114-19.156-18.2-41.186-5.747-38.312,18.2,26.819,18.2,26.819Z" transform="translate(-466.331 -155.718)" fill="#fbbebe"/>
        <path id="Path_35" data-name="Path 35" d="M642.514,173.663l31.608,102.486-43.1,9.578-31.608-99.612Z" transform="translate(-457.851 -34.873)" fill="#19afc9"/>
        <path id="Path_36" data-name="Path 36" d="M784.572,369.383l-5.984,10s-2.637,18.734,10.773,18.734,32.566-18.2,32.566-18.2,9.578-3.831,15.325-2.873,37.355,0,23.945-16.283-36.4,0-36.4,0l-23.945,11.494-12.452-6.7Z" transform="translate(-640.137 -156.841)" fill="#fbbebe"/>
        <path id="Path_37" data-name="Path 37" d="M857.908,356.5l9.578,15.325s-22.03,2.873-23.945,7.663,8.62-24.9,8.62-24.9Z" transform="translate(-705.332 -156.886)" fill="#033139"/>
      </g>
    </g>
  </g>
</svg>
