<?xml version="1.0" encoding="utf-8"?>
<!-- Generator: Adobe Illustrator 19.0.0, SVG Export Plug-In . SVG Version: 6.00 Build 0)  -->
<svg version="1.1" id="圖層_1" xmlns="http://www.w3.org/2000/svg" xmlns:xlink="http://www.w3.org/1999/xlink" x="0px" y="0px"
	 viewBox="281 -372.1 839.3 774.5" style="enable-background:new 281 -372.1 839.3 774.5;" xml:space="preserve">
<style type="text/css">
	.st0{fill:#033139;}
	.st1{fill:#EFE8DC;}
	.st2{fill:#F2F2F2;}
	.st3{fill:#19AFC9;}
	.st4{fill:none;stroke:#033139;stroke-width:2;stroke-miterlimit:10;}
	.st5{fill:#FBBEBE;}
	.st6{fill:#001A1E;}
	.st7{opacity:0.1;enable-background:new    ;}
	.st8{fill:#EE5473;}
	.st9{fill:none;stroke:#EFE8DC;}
	.st10{opacity:0.4;fill:#FFFFFF;enable-background:new    ;}
	.st11{fill:#FFFFFF;}
</style>
<g id="image1">
	<g id="Group_37" transform="translate(230 203)">
		<g id="Group_8" transform="translate(0 220.483)">
			<path id="Path_38" class="st0" d="M710.3-46.8H258.1v-294.9l383.4,69.8L710.3-46.8z"/>
			<path id="Path_39" class="st1" d="M414.5-66h-98.1c0,0-2-29.2,9.8-29.5c11.8-0.3,10.4,12.9,25.2-5.3s32.6-17.2,35-6.5
				c2.3,10.8-4.5,19.4,8,16.7C406.7-93.1,424.6-86.2,414.5-66z"/>
			<path id="Path_40" class="st2" d="M363.8-66l-0.3,0c0.8-19.2,4.8-31.5,8-38.5c3.5-7.6,6.9-10.6,6.9-10.7l0.2,0.2
				c0,0-3.4,3.1-6.9,10.6C368.6-97.4,364.6-85.1,363.8-66z"/>
			<path id="Path_41" class="st2" d="M399.3-65.9L399-66c2.5-8.1,6.9-15.5,12.9-21.5l0.2,0.2C406.2-81.4,401.8-74,399.3-65.9
				L399.3-65.9z"/>
			<path id="Path_42" class="st2" d="M331.9-65.9l-0.3,0c1.1-7.2-0.1-14.6-3.2-21.1c-1.3-2.7-3-5.3-5.1-7.5l0.2-0.2
				c2.1,2.2,3.9,4.8,5.2,7.6C331.8-80.6,333-73.2,331.9-65.9z"/>
			<path id="Path_44" class="st3" d="M430-65.8H299.7l0-0.4c-0.1-1.1-1.7-27,6.6-36.2c1.7-2,4.1-3.1,6.7-3.2
				c5.5-0.2,8.9,1.9,11.7,3.5c5.2,3.1,8.7,5.1,21.2-10.4c13.6-16.8,28.3-20.4,36.7-18.4c5.4,1.3,9.2,5,10.3,10.1
				c0.8,4.3,0.9,8.7,0.4,13c-0.3,3.9-0.5,7,1.1,8.4c1.3,1.2,4,1.3,8.4,0.3c8.9-1.9,21.4-0.3,27.7,7.8c3.4,4.4,6,12.3-0.5,25.2
				L430-65.8z M300.6-66.8h128.7c4.8-9.8,5-18.1,0.4-24c-5.7-7.4-17.8-9.4-26.7-7.5c-4.8,1-7.6,0.9-9.2-0.5c-2-1.7-1.7-5-1.4-9.2
				c0.5-4.2,0.3-8.5-0.4-12.7c-1-4.7-4.5-8.1-9.6-9.3c-8.2-1.9-22.4,1.6-35.7,18.1c-13.1,16.1-17,13.8-22.4,10.6
				c-2.8-1.7-6-3.6-11.2-3.4c-2.3,0.1-4.5,1.1-6,2.9C299.5-93.5,300.5-70.3,300.6-66.8L300.6-66.8z"/>
			<rect id="Rectangle_23" x="324" y="-236" class="st3" width="92.7" height="1"/>
			<rect id="Rectangle_24" x="324" y="-228.7" class="st3" width="92.7" height="1"/>
			<rect id="Rectangle_25" x="324" y="-221.4" class="st3" width="92.7" height="1"/>
			<rect id="Rectangle_26" x="324" y="-269.5" class="st3" width="92.7" height="1"/>
			<rect id="Rectangle_27" x="324" y="-262.2" class="st3" width="92.7" height="1"/>
			<rect id="Rectangle_28" x="324" y="-254.9" class="st3" width="92.7" height="1"/>
			<rect id="Rectangle_29" x="325.9" y="-295.6" class="st1" width="20.8" height="16.9"/>
			<path id="Path_45" class="st3" d="M343.7-281.3H322v-17.8h21.7V-281.3z M322.8-282.1h20v-16.1h-20V-282.1z"/>
			<circle id="Ellipse_20" class="st1" cx="305.3" cy="-290.1" r="4.2"/>
			<rect id="Rectangle_30" x="443" y="-117" class="st3" width="92.7" height="1"/>
			<rect id="Rectangle_31" x="443" y="-109.7" class="st3" width="92.7" height="1"/>
			<rect id="Rectangle_32" x="443" y="-102.4" class="st3" width="92.7" height="1"/>
			<rect id="Rectangle_33" x="443" y="-150.5" class="st3" width="92.7" height="1"/>
			<rect id="Rectangle_34" x="443" y="-143.2" class="st3" width="92.7" height="1"/>
			<rect id="Rectangle_35" x="443" y="-135.9" class="st3" width="92.7" height="1"/>
			<rect id="Rectangle_36" x="444.9" y="-176.6" class="st1" width="20.8" height="16.9"/>
			<path id="Path_46" class="st3" d="M462.7-162.3H441v-17.8h21.7L462.7-162.3z M441.8-163.1h20v-16.1h-20L441.8-163.1z"/>
			<ellipse id="Ellipse_21" class="st1" cx="424" cy="-171.1" rx="4.2" ry="4"/>
			<path id="Path_61" class="st3" d="M484.3-181.6c-5.7,0-10.3,4.6-10.3,10.3s4.6,10.3,10.3,10.3c5.7,0,10.3-4.6,10.3-10.3v0
				C494.6-177,490-181.6,484.3-181.6z M482.5-166.6l-4.4-4.4l1.2-1.2l3.2,3.2l6.7-6.7l1.2,1.2L482.5-166.6z"/>
			<path id="Path_62" class="st3" d="M364.3-300.6c-5.7,0-10.3,4.6-10.3,10.3s4.6,10.3,10.3,10.3s10.3-4.6,10.3-10.3
				S369.9-300.6,364.3-300.6L364.3-300.6z M362.5-285.6l-4.4-4.4l1.2-1.2l3.2,3.2l6.7-6.7l1.2,1.2L362.5-285.6z"/>
		</g>
		<path id="Path_43" class="st3" d="M733.1,154.9h-458v-311.6h458V154.9z M276.2,153.8h455.9v-309.4H276.2V153.8z"/>
		<g id="Group_6" transform="translate(304.974 237.22)">
			<path id="Path_12" class="st1" d="M252.8-128.6c0,38.4,22.8,51.7,50.9,51.7s50.9-13.4,50.9-51.7s-50.9-87.2-50.9-87.2
				S252.8-166.9,252.8-128.6z"/>
			<path id="Path_13" class="st0" d="M305.6-82.7l-0.5-32.1l-21.7-39.7l21.6,34.7l-0.2-14.4l-15-28.7l14.9,24.9l0,0l-0.4-26
				l-16-22.9l16,18.8l-0.3-47.6l1.7,63l-0.1-2.6l16.3-24.9l-16,29.9l1.5,29l0-0.8l18.8-26.2l-18.7,29l0.2,3.6l0,0.1l0,0.3l3.9,73.6
				h-5.1l-0.6-38L287-108.7L305.6-82.7z"/>
			<path id="Path_14" class="st3" d="M268.7-59.6c0,11,6.5,14.8,14.6,14.8c0.2,0,0.4,0,0.6,0c0.4,0,0.7,0,1.1-0.1
				c7.3-0.5,12.9-4.6,12.9-14.8c0-10.6-13.5-23.9-14.5-24.9l0,0l-0.1-0.1C283.3-84.5,268.7-70.6,268.7-59.6z"/>
			<path id="Path_15" class="st0" d="M283.9-46.4l-5.3-7.5l5.4,8.3l0,0.9c0.4,0,0.7,0,1.1-0.1l-0.6-11v-0.1l0,0l-0.1-1l5.4-8.3
				l-5.4,7.5l0,0.2l-0.4-8.3l4.6-8.6l-4.6,7.1l-0.5-17.2v-0.1v0.1l0.1,13.6l-4.6-5.4l4.6,6.6l0.1,7.4l-4.3-7.1l4.3,8.2l0.1,4.1
				l-6.2-9.9l6.2,11.4L283.9-46.4z"/>
			<circle id="Ellipse_17" class="st1" cx="250.1" cy="-332.9" r="7.2"/>
			<circle id="Ellipse_18" class="st4" cx="253" cy="-335.4" r="7.2"/>
			<rect id="Rectangle_21" x="295.7" y="-331.3" class="st3" width="16.3" height="16.3"/>
			<rect id="Rectangle_22" x="292.4" y="-334.6" class="st4" width="16.3" height="16.3"/>
			<path id="Path_21" class="st5" d="M349.4-69.6c0,0,1.5,9.3,3.9,10.8c2.4,1.5-12.7,4.9-12.7,4.9l-2.4-14.7L349.4-69.6z"/>
			<path id="Path_22" class="st6" d="M331.3-175.8l-5.4,6.4l2.4,22l2,43.5c0,0-3.9,37.7,0,38.6c3.9,1,21.5,0.5,21-2
				c-0.5-2.4-1-4.4-2-7.8c-1-3.4,1-15.7,1-15.7l-2.4-13.7l8.8-59.2L331.3-175.8z"/>
			<path id="Path_23" class="st6" d="M349-60.4c0,0,5.4-1,5.9,0c0.5,1,9.8,11.3,11.3,11.3c1.5,0,12.2,9.8,1,10.3
				c-11.3,0.5-29.8-8.3-29.8-8.3s2.7-12.4,2.6-11.9C339.7-58.4,349-57.9,349-60.4z"/>
			<path id="Path_24" class="st5" d="M354.8-82.9c0,0-13.7,15.2-14.2,16.6s-7.8,0-7.8,0l-2.9-9.8l2.4-3.4L346-90.7L354.8-82.9z"/>
			<path id="Path_25" class="st6" d="M335.3-71.6l7.1,6.7c0,0-9.1,13.9-9.1,15.3s-0.5,13.7-5.4,11.7c-4.9-2-5.4-21.5-5.4-21.5
				s0.5-20.1,3.4-21.5c2.9-1.5,9.4-1,9.4-1S331.3-72.1,335.3-71.6z"/>
			<path id="Path_26" class="st6" d="M375.9-219.3c0,0,2.4,7.8,2.9,9.8c0.5,2,3.4,7.3,3.4,15.7c0,8.3-1,18.1,0,19.1
				c1,1,16.6,55.8,9.8,61.6c-6.8,5.9-29.4,25.4-30.8,27.9c-1.5,2.4-2,8.3-4.9,7.3c-2.9-1-14.2-10.8-14.7-12.7
				c-0.5-2,6.4-5.4,6.4-5.4s13.7-20.1,17.1-19.6s2.9-2.4,2.4-3.9s-1.5-2.4,0-2.4s0.5-3.9,0-5.9c-0.5-2-11.7-28.4-11.7-28.4
				L326-169.4c0,0,1.5-35.7,12.2-45.5l2.4-5.9C340.6-220.8,368-222.8,375.9-219.3z"/>
			<path id="Path_27" class="st5" d="M363.6-296.6c0,0-2.4,17.1,3.4,18.1c5.9,1,10.8,0.5,10.8,1c0,0.5-14.7,15.7-14.7,15.7l-13.7-1
				l-12.2-13.2c0,0,11.3-2,11.3-8.8c0-6.8,0.5-11.7,0.5-11.7L363.6-296.6z"/>
			<path id="Path_28" class="st7" d="M363.6-296.6c0,0-2.4,17.1,3.4,18.1c5.9,1,10.8,0.5,10.8,1c0,0.5-14.7,15.7-14.7,15.7l-13.7-1
				l-12.2-13.2c0,0,11.3-2,11.3-8.8c0-6.8,0.5-11.7,0.5-11.7L363.6-296.6z"/>
			<circle id="Ellipse_19" class="st5" cx="356" cy="-304.7" r="15.2"/>
			<path id="Path_29" class="st0" d="M369.5-280c0,0,19.1,2.4,20.5,8.8c1.5,6.4-10,46-10.8,49.4c-0.8,3.4-1.2,5.4-1.2,5.4
				c-1.4-0.8-10.4-4.1-15.9-3c-9.3,2-22.5,1-22.5,1s-4.4-18.1-5.4-20.1s-4.9-12.7-4.9-15.7s-5.9-15.2-5.9-15.2s2.9-8.8,13.7-8.3
				c0,0,4.7-2.1,6-0.6s8.7,8.4,18,5.5C370.5-275.6,369.5-280,369.5-280z"/>
			<path id="Path_30" class="st0" d="M384.7-271.7h5.4L393-233c0,0-10.8,2.9-12.2,1S384.7-271.7,384.7-271.7z"/>
			<path id="Path_31" class="st0" d="M391.5-237l1.5,3.9c0,0,1,12.7-4.9,12.2c-5.9-0.5-9.3-7.8-9.3-7.8s3.4-9.3,7.3-8.3
				C390.1-236,391.5-237,391.5-237z"/>
			<path id="Path_32" class="st0" d="M332.8-271.7l-9.3,2.4c0,0-6.8,24.9-7.3,25.4c-0.5,0.5-1,3.4-1,3.4s0,0.5-1,2
				c-1,1.5-2.4,0.5-1.5,2.4s2.4,1,1.5,2.9c-1,2-0.5,7.3-0.5,7.3s2.4-9.3,11.3-6.8l5.9-26.4L332.8-271.7z"/>
			<path id="Path_33" class="st8" d="M373.3-317.2c3.1,5.4,3.8,11.8,4.2,18.1c0.3,2.7,0.2,5.4-0.5,8c-0.8,2.7-2.7,5.4-1.7,8.1
				c0.9,2.6,4,3.6,5.7,5.7c1.4,1.9,2,4.2,1.7,6.6c-0.1,2.3-0.7,4.6-0.9,6.9c-0.3,5.1,1.2,10.1,4.4,14c-7.4-0.3-15.2-3.6-18.4-10.2
				c-0.9-2-1.4-4.2-2.2-6.2c-1-2.3-2.4-4.4-3.3-6.7c-1.4-3.5-1.4-7.4-1.5-11.1c-0.2-2.3,0.1-4.5,0.7-6.7c1.7-4.7,7.1-7.7,7.6-12.6
				c0.1-0.5,0-1.1-0.2-1.5c-0.2-0.3-0.6-0.7-0.9-0.9c-3.3-2.9-2.8-9.2-6.7-11.2c-1.8-0.9-3.9-0.6-5.8,0c-2.2,0.5-4.1,1.7-5.6,3.3
				c-2.8,3.5-1.7,8.5-0.8,12.9c1.2,6.3,1.7,12.8,1.3,19.3c0,1-0.2,2.1-0.5,3.1c-0.7,1.6-1.5,3.1-2.4,4.5c-1.7,3-2.2,6.6-1.5,10
				c0.6,3,2.1,6.1,0.8,8.8c-0.6,1.1-1.4,2-2.4,2.6c-4.3,3.4-9.8,5.5-13.1,10c-0.6-3.6,0.5-7.3,1.3-10.9c0.8-3.6,1.3-7.5-0.3-10.9
				c-0.7-1.5-1.8-2.7-2.4-4.2c-1.3-3.5,0.3-7.3,1.2-10.9c0.7-2.8,1.2-5.7,1.5-8.6l1-7.8c0.8-6.5,1.7-13.1,4.5-19
				c5.4-11.1,17.5-15.2,28.4-9.1C369.3-322.4,371.7-320.1,373.3-317.2z"/>
			<path id="Path_34" class="st5" d="M386.6-234.5c0,0,2.9,8.8-0.5,8.8c-3.4,0-9.8-5.4-10.3-9.8c-0.5-4.4-9.3-21-2.9-19.6
				c6.4,1.5,9.3,13.7,9.3,13.7L386.6-234.5z"/>
			<path id="Path_35" class="st3" d="M337.2-271.7l16.1,52.3l-22,4.9l-16.1-50.9L337.2-271.7z"/>
			<path id="Path_36" class="st5" d="M316.7-234l-3.1,5.1c0,0-1.3,9.6,5.5,9.6s16.6-9.3,16.6-9.3s4.9-2,7.8-1.5
				c2.9,0.5,19.1,0,12.2-8.3s-18.6,0-18.6,0l-12.2,5.9l-6.4-3.4L316.7-234z"/>
			<path id="Path_37" class="st0" d="M320.8-240.6l4.9,7.8c0,0-11.3,1.5-12.2,3.9c-1,2.4,4.4-12.7,4.4-12.7L320.8-240.6z"/>
		</g>
	</g>
	<path id="Path_142" class="st9" d="M505.6,85.5l0-38.5h457.1v289.9"/>
</g>
<circle id="Ellipse_32" class="st10" cx="1107" cy="161.2" r="13.4"/>
<circle id="Ellipse_58" class="st10" cx="330.6" cy="-251.1" r="15"/>
<g id="Group_42" transform="translate(2396 288)">
	<rect id="Rectangle_104" x="-1999.7" y="-140.2" class="st6" width="32.3" height="27.9"/>
	<rect id="Rectangle_105" x="-2115" y="-139.9" class="st0" width="92.4" height="76.7"/>
	<rect id="Rectangle_106" x="-2087.2" y="-127.2" class="st11" width="36.9" height="4.6"/>
	<rect id="Rectangle_107" x="-2102.4" y="-116.3" class="st11" width="25.6" height="2.7"/>
	<rect id="Rectangle_108" x="-2081.8" y="-98.4" class="st11" width="25.6" height="2.7"/>
	<rect id="Rectangle_109" x="-2061.2" y="-116.3" class="st3" width="25.6" height="2.7"/>
	<rect id="Rectangle_110" x="-1995.4" y="-124.5" class="st3" width="23.3" height="1.3"/>
	<rect id="Rectangle_111" x="-1995.7" y="-121.7" class="st3" width="23.3" height="1.3"/>
	<rect id="Rectangle_112" x="-1995.4" y="-118.9" class="st3" width="23.3" height="1.3"/>
	<rect id="Rectangle_113" x="-1995.4" y="-133.7" class="st3" width="23.3" height="1.3"/>
	<rect id="Rectangle_114" x="-1995.7" y="-130.9" class="st3" width="23.3" height="1.3"/>
	<rect id="Rectangle_115" x="-1995.4" y="-128.1" class="st3" width="23.3" height="1.3"/>
	<rect id="Rectangle_116" x="-1990.5" y="-131" class="st0" width="32.3" height="27.9"/>
	<rect id="Rectangle_117" x="-1986.2" y="-115.2" class="st3" width="23.3" height="1.3"/>
	<rect id="Rectangle_118" x="-1986.4" y="-112.5" class="st3" width="23.3" height="1.3"/>
	<rect id="Rectangle_119" x="-1986.2" y="-109.7" class="st3" width="23.3" height="1.3"/>
	<rect id="Rectangle_120" x="-1986.2" y="-124.5" class="st3" width="23.3" height="1.3"/>
	<rect id="Rectangle_121" x="-1986.4" y="-121.7" class="st3" width="23.3" height="1.3"/>
	<rect id="Rectangle_122" x="-1986.2" y="-118.9" class="st3" width="23.3" height="1.3"/>
	<rect id="Rectangle_130" x="-2102.4" y="-107.4" class="st11" width="67.2" height="2.7"/>
	<rect id="Rectangle_131" x="-2102.4" y="-98.4" class="st3" width="15" height="2.7"/>
	<rect id="Rectangle_132" x="-2102.4" y="-80.5" class="st11" width="15" height="2.7"/>
	<rect id="Rectangle_133" x="-2050.6" y="-98.4" class="st11" width="15" height="2.7"/>
	<rect id="Rectangle_134" x="-2102.4" y="-89.5" class="st11" width="67.2" height="2.7"/>
	<rect id="Rectangle_135" x="-2074.6" y="-80.5" class="st11" width="39.4" height="2.7"/>
	<path id="Path_174" class="st6" d="M-2041.6-114.8l-0.4-0.3l29.4-38.3h29.1v0.5h-28.9L-2041.6-114.8z"/>
	<circle id="Ellipse_46" class="st1" cx="-1983.6" cy="-153.4" r="4.3"/>
</g>
</svg>
