<?xml version="1.0" encoding="utf-8"?>
<!-- Generator: Adobe Illustrator 19.0.0, SVG Export Plug-In . SVG Version: 6.00 Build 0)  -->
<svg version="1.1" id="Group_39" xmlns="http://www.w3.org/2000/svg" xmlns:xlink="http://www.w3.org/1999/xlink" x="0px" y="0px"
	 viewBox="-53 19.3 260.7 184" style="enable-background:new -53 19.3 260.7 184;" xml:space="preserve">
<style type="text/css">
	.st0{fill:#EFE8DC;}
	.st1{fill:#033139;}
	.st2{opacity:0.3;fill:#19AFC9;enable-background:new    ;}
	.st3{fill:#19AFC9;}
	.st4{opacity:0.4;fill:#19AFC9;enable-background:new    ;}
</style>
<g>
	<path id="Path_65" class="st0" d="M-7.5,19.3l-18.9,36.9h3.8v30.1h-19.3L-53,108.1l137.6,70.5l45.5-88.7L-7.5,19.3z"/>
	<rect id="Rectangle_66" x="-11.5" y="43.4" class="st1" width="210.9" height="105.8"/>
	<rect id="Rectangle_67" x="18.1" y="81.4" class="st2" width="155.7" height="0.4"/>
	<rect id="Rectangle_68" x="18.3" y="90.3" class="st2" width="155.7" height="0.4"/>
	<rect id="Rectangle_69" x="18.3" y="108.3" class="st2" width="155.7" height="0.4"/>
	<rect id="Rectangle_70" x="18.3" y="116.2" class="st2" width="155.7" height="0.4"/>
	<rect id="Rectangle_71" x="18.3" y="99.3" class="st2" width="155.7" height="0.4"/>
	<path id="Path_66" class="st3" d="M22.6,116.4l-0.5-0.5l23.2-22.1l20.4,14.7l16.5-18.3l7.2,6.2l19.7-11.8L131,99.2l34.3-19.5
		l0.4,0.6L131,100.1l-21.9-14.7L89.4,97.2l-7.1-6l-16.5,18.3L45.3,94.8L22.6,116.4z"/>
	<circle id="Ellipse_24" class="st4" cx="199.2" cy="44.2" r="8.4"/>
	<circle id="Ellipse_25" class="st4" cx="188.8" cy="198.8" r="4.5"/>
	<circle id="Ellipse_27" class="st4" cx="100.9" cy="177" r="4.5"/>
	<circle id="Ellipse_28" class="st3" cx="165.2" cy="81.6" r="4.7"/>
	<rect id="Rectangle_72" x="-48.5" y="60.6" class="st1" width="23" height="23"/>
</g>
</svg>
