<svg xmlns="http://www.w3.org/2000/svg" width="80" height="68.571" viewBox="0 0 80 68.571">
  <g id="Group_76" data-name="Group 76" transform="translate(-941.49 -426.076)" opacity="0.3">
    <g id="Path_178" data-name="Path 178" transform="translate(941.49 426.076)" fill="none" stroke-linecap="round">
      <path d="M2.757,0h43.19A2.788,2.788,0,0,1,48.7,2.818V65.753a2.788,2.788,0,0,1-2.757,2.818H2.757A2.788,2.788,0,0,1,0,65.753V2.818A2.788,2.788,0,0,1,2.757,0Z" stroke="none"/>
      <path d="M 5.000003814697266 4.999996185302734 L 5.000003814697266 63.57143783569336 L 43.70336532592773 63.57143783569336 L 43.70336532592773 4.999996185302734 L 5.000003814697266 4.999996185302734 M 2.756790161132813 0 L 45.94657897949219 0 C 47.46911239624023 0 48.70336532592773 1.261665344238281 48.70336532592773 2.818000793457031 L 48.70336532592773 65.75343322753906 C 48.70336532592773 67.30976867675781 47.46911239624023 68.57143402099609 45.94657897949219 68.57143402099609 L 2.756790161132813 68.57143402099609 C 1.234256744384766 68.57143402099609 3.814697265625e-06 67.30976867675781 3.814697265625e-06 65.75343322753906 L 3.814697265625e-06 2.818000793457031 C 3.814697265625e-06 1.261665344238281 1.234256744384766 0 2.756790161132813 0 Z" stroke="none" fill="#19afc9"/>
    </g>
    <g id="Group_75" data-name="Group 75" transform="translate(966.915 445.022)">
      <path id="Path_179" data-name="Path 179" d="M13.884.643a1.29,1.29,0,0,1,2.232,0L29.669,20.759c.774,1.149.1,2.878-1.116,2.878H1.447c-1.22,0-1.89-1.729-1.116-2.878Z" transform="translate(54.576 0) rotate(90)" fill="#19afc9"/>
      <rect id="Rectangle_171" data-name="Rectangle 171" width="35.456" height="10" rx="2" transform="translate(0 10.451)" fill="#19afc9"/>
    </g>
  </g>
</svg>
