<svg id="Group_19" data-name="Group 19" xmlns="http://www.w3.org/2000/svg" width="130" height="23.044" viewBox="0 0 130 23.044">
  <g id="Group_19-2" data-name="Group 19" transform="translate(0.046)">
    <path id="Path_110" data-name="Path 110" d="M27.694,42.9a.631.631,0,0,1,.266-.476.814.814,0,0,1,.522-.225h.908a1.522,1.522,0,0,0,.231-.4,3.944,3.944,0,0,0,.129-.4l.1-.4a1.633,1.633,0,0,1,.137-.359.26.26,0,0,1,.231-.135c.108-.006.19-.009.248-.009l.137.054a.509.509,0,0,1,.094.351,2.046,2.046,0,0,1-.077.467c-.046.162-.1.318-.154.467s-.1.267-.137.351a4.251,4.251,0,0,0,.565,0,4.511,4.511,0,0,1,.754.027,1.733,1.733,0,0,1,.66.207.556.556,0,0,1,.282.521q0,1.1.017,1.789a6.382,6.382,0,0,1-.051,1.114,1.017,1.017,0,0,1-.266.6,1.175,1.175,0,0,1-.659.233,8.074,8.074,0,0,1-1.207.027q-.746-.027-1.892-.027L28.5,48.151l3.476.036a.388.388,0,0,1,.205.081,1.374,1.374,0,0,1,.223.189,1.281,1.281,0,0,1,.18.242.481.481,0,0,1,.077.207v3.6a1.039,1.039,0,0,1-.163.486.756.756,0,0,1-.351.359,2.543,2.543,0,0,1-.719.107q-.462.019-1.01.019-.514,0-1.019-.019c-.337-.012-.6-.018-.779-.018a.741.741,0,0,1-.6-.242,1.869,1.869,0,0,1-.325-.567Zm.856.378L28.533,45.8h3.014c.023-.024.06-.066.112-.126a.27.27,0,0,0,.077-.126l.017-2.1a.566.566,0,0,0-.06-.207c-.04-.09-.089-.135-.146-.135l-2.774-.036A.554.554,0,0,0,28.55,43.278Zm-.017,5.753v3.2a.251.251,0,0,0,.086.189.711.711,0,0,0,.154.117l2.688.036c.045,0,.105-.039.179-.117a.319.319,0,0,0,.112-.188l.034-2.823a.539.539,0,0,0-.051-.234.337.337,0,0,0-.171-.162Zm8.87-6.976-.017,1.852a2.62,2.62,0,0,0,.582.044c.205-.006.394-.009.565-.009a2.955,2.955,0,0,1,.489.045,2.747,2.747,0,0,1,.5.135,1.044,1.044,0,0,1,.411.278.711.711,0,0,1,.171.494v7.03a.765.765,0,0,1-.051.252,2.5,2.5,0,0,1-.129.3,1.429,1.429,0,0,1-.172.269.452.452,0,0,1-.2.153.94.94,0,0,1-.36.09,3.093,3.093,0,0,1-.462,0c-.16-.012-.314-.028-.463-.045a3.364,3.364,0,0,1-.377-.063.389.389,0,0,1-.188-.341c-.023-.2.011-.336.1-.4a.551.551,0,0,1,.308-.09,1.977,1.977,0,0,1,.4.044,1.843,1.843,0,0,0,.369.045.31.31,0,0,0,.3-.144.763.763,0,0,0,.077-.359V45.274a.348.348,0,0,0-.231-.36,1.794,1.794,0,0,0-.548-.108,4.382,4.382,0,0,0-.624.009,1.589,1.589,0,0,1-.462-.009l-.034,9.349a.4.4,0,0,1-.386.261.4.4,0,0,1-.4-.226l-.017-9.367A4.431,4.431,0,0,1,36.1,44.8a3.107,3.107,0,0,0-.523-.009,2.133,2.133,0,0,0-.5.09.528.528,0,0,0-.334.288L34.7,52.681c0,.036-.031.081-.094.134s-.106.093-.129.117a1.259,1.259,0,0,1-.479-.09l-.086-.126V44.9a.707.707,0,0,1,.308-.656,2.036,2.036,0,0,1,.728-.26,4.158,4.158,0,0,1,.864-.054,4.989,4.989,0,0,0,.754-.018V42.091l-2.757-.036a.345.345,0,0,1-.223-.324.757.757,0,0,1,.12-.432l.171-.072,6.421.018c.091.012.148.093.171.243a1.105,1.105,0,0,1,.017.314.273.273,0,0,1-.086.135q-.069.063-.12.117Z" transform="translate(-27.694 -40.329)" fill="#fff"/>
    <path id="Path_111" data-name="Path 111" d="M101.047,44.485q-.275.189-.643.4t-.788.414c-.279.132-.542.251-.787.359a4.038,4.038,0,0,1-.667.233.909.909,0,0,1-.471.018.344.344,0,0,1-.179-.179.544.544,0,0,1-.077-.252.354.354,0,0,1,.077-.225.4.4,0,0,1,.179-.135,4.5,4.5,0,0,1,.445-.153q.222-.062.463-.153.633-.269,1.242-.575a11.078,11.078,0,0,0,1.173-.683.512.512,0,0,1,.445.216.657.657,0,0,1,.017.2v.216C101.372,44.261,101.229,44.36,101.047,44.485Zm.171-2.589a.773.773,0,0,1-.205.225l-2.98.018c-.058-.024-.114-.051-.171-.081a.458.458,0,0,1-.154-.134v-.252a.254.254,0,0,1,.051-.189c.034-.029.12-.093.257-.188l3.031.036a.14.14,0,0,1,.129.1,1.043,1.043,0,0,0,.077.153A.957.957,0,0,1,101.218,41.9Zm9.52,12.415a2.873,2.873,0,0,1-.411-.081c-.229-.054-.5-.12-.814-.2s-.644-.159-.993-.242-.674-.163-.975-.234l-1.071-.252q-.086-.053-.06-.216a1.8,1.8,0,0,0,.025-.252l.068-.072h-4.161a.492.492,0,0,1-.24.629,5.659,5.659,0,0,1-.813.306q-.522.162-1.1.306t-1.122.233a5.568,5.568,0,0,1-.865.09.374.374,0,0,1-.24-.081.741.741,0,0,1-.171-.189,1.756,1.756,0,0,1,.026-.332.381.381,0,0,1,.214-.242q.838-.108,1.67-.261a9.431,9.431,0,0,0,1.635-.458q-.189,0-.428-.01a2.482,2.482,0,0,1-.471-.062,1.367,1.367,0,0,1-.427-.18.7.7,0,0,1-.283-.342c-.012,0-.032-.044-.06-.135a1.029,1.029,0,0,1-.043-.153l.034-5.34a.688.688,0,0,1,.086-.359.677.677,0,0,1,.231-.233,1.4,1.4,0,0,1,.308-.144c.108-.037.207-.072.3-.108l8.151.036a.627.627,0,0,1,.479.27.849.849,0,0,1,.223.539v5.43a.671.671,0,0,1-.248.485.934.934,0,0,1-.488.27,2.39,2.39,0,0,1-.514.018,2.6,2.6,0,0,0-.531.018q.291.053.754.144t.942.206q.479.117.9.243a3.462,3.462,0,0,1,.676.269.217.217,0,0,1,.086.2v.27A.8.8,0,0,1,110.738,54.311Zm-2.115-6.85a2.568,2.568,0,0,0-.008-.359.9.9,0,0,0-.086-.315.451.451,0,0,0-.24-.206h-7.363a.383.383,0,0,0-.326.134.7.7,0,0,0-.129.333,1.95,1.95,0,0,0-.008.4c.011.138.017.249.017.332h8.134Q108.615,47.641,108.624,47.461Zm-8.142,3.2c0,.1,0,.2-.009.324a2.42,2.42,0,0,0,.009.351,1.018,1.018,0,0,0,.086.323.428.428,0,0,0,.24.225H108a.5.5,0,0,0,.5-.242,1.23,1.23,0,0,0,.12-.549v-.431Zm8.134-1.978h-8.134v1.1h8.134Zm-4.341-4.108a5.711,5.711,0,0,1-2.08.944,1.007,1.007,0,0,1-.4.027.271.271,0,0,1-.249-.26.36.36,0,0,1,.068-.315.843.843,0,0,1,.274-.2,1.848,1.848,0,0,1,.368-.125,2.34,2.34,0,0,0,.334-.1,7.633,7.633,0,0,0,1.533-.872,3.747,3.747,0,0,0,1.121-1.375l-2.089-.036c-.08.06-.188.153-.325.279s-.277.249-.419.368a5.019,5.019,0,0,1-.429.324.683.683,0,0,1-.351.144.3.3,0,0,1-.2-.081c-.062-.054-.117-.105-.162-.153a.846.846,0,0,1-.017-.216v-.216a1.076,1.076,0,0,1,.3-.2,2.149,2.149,0,0,0,.3-.162,3.785,3.785,0,0,0,.822-.845q.342-.486.7-.971a.325.325,0,0,1,.316.027.394.394,0,0,1,.231.243.594.594,0,0,1-.06.3c-.051.126-.094.225-.128.3l6.49.054a.619.619,0,0,1,.351.144.9.9,0,0,1,.266.27.7.7,0,0,1,.052.71,2.123,2.123,0,0,1-.5.647,3,3,0,0,1-.745.485,2.519,2.519,0,0,1-.685.225.468.468,0,0,1-.231-.027.317.317,0,0,1-.179-.134.6.6,0,0,1-.034-.18V43.38a.892.892,0,0,1,.368-.252c.153-.06.308-.123.462-.188a2.129,2.129,0,0,0,.386-.207.351.351,0,0,0,.154-.306l-.188-.126-3.236-.036v.091a8.462,8.462,0,0,0,1.464,1.6,6.172,6.172,0,0,0,1.841,1.079,2.321,2.321,0,0,0,.488.126,3.482,3.482,0,0,1,.488.107.3.3,0,0,1,.163.144.48.48,0,0,1,.06.234q0,.305-.206.377a.792.792,0,0,1-.445.018,6.946,6.946,0,0,1-2.517-1.1,7.141,7.141,0,0,1-1.918-2.014A6.317,6.317,0,0,1,104.274,44.576Z" transform="translate(-74.475 -40.342)" fill="#fff"/>
    <path id="Path_112" data-name="Path 112" d="M167.991,52.452a.91.91,0,0,1,.3-.207l.5-.252q.266-.134.531-.252a2.887,2.887,0,0,0,.4-.206V45.6l-1.558-.036a.169.169,0,0,1-.145-.1.447.447,0,0,1-.068-.4.516.516,0,0,1,.077-.207l.205-.108H169.7l.051-3.523a.373.373,0,0,1,.137-.162,1.157,1.157,0,0,1,.172-.09l.205.036a.4.4,0,0,1,.188.09l.12.215v3.4l1.473.054c.057,0,.1.051.137.153a.882.882,0,0,1,.051.279v.125a.251.251,0,0,1-.094.135.834.834,0,0,1-.145.1l-1.4.018L170.577,51l.017.018c.045-.036.134-.1.266-.2l.428-.315c.155-.114.294-.21.42-.288a.856.856,0,0,1,.223-.117.341.341,0,0,1,.334.188.935.935,0,0,1,.094.225.627.627,0,0,1-.249.4,5.969,5.969,0,0,1-.642.513q-.395.278-.856.566t-.89.521a7.885,7.885,0,0,1-.779.377,2.4,2.4,0,0,1-.489.162.466.466,0,0,1-.18,0,.41.41,0,0,1-.162-.054A.605.605,0,0,1,167.991,52.452Zm3.87-4.836a.166.166,0,0,1-.154-.09q-.051-.09-.1-.2c0-.072,0-.144.009-.216a.317.317,0,0,1,.094-.2l.188-.108h2.466a1.758,1.758,0,0,0-.086-.728q-.138-.549-.308-1.151t-.308-1.133a1.862,1.862,0,0,1-.1-.656,2.868,2.868,0,0,0-.4-.01q-.232.009-.471.01a1.292,1.292,0,0,1-.411-.063.444.444,0,0,1-.274-.261.717.717,0,0,1,.137-.449l.171-.072h3.973a.818.818,0,0,0,.034-.342c-.012-.131-.017-.257-.017-.377a1.486,1.486,0,0,1,.043-.368.453.453,0,0,1,.214-.279.615.615,0,0,1,.437.126.631.631,0,0,1,.171.323,1.379,1.379,0,0,1,.016.44,4.554,4.554,0,0,0-.025.459l4.076.053c.045,0,.086.034.12.1a.613.613,0,0,1,.017.495.324.324,0,0,1-.172.179l-1.336.018c-.023.06-.043.12-.06.18s-.038.12-.06.179l-.753,3.29,2.517.054c.194.084.271.213.231.386a.682.682,0,0,1-.248.4Zm8.1,1.187a.38.38,0,0,1,.24.1,1.938,1.938,0,0,1,.223.216,1.217,1.217,0,0,1,.171.252.555.555,0,0,1,.068.243l-.017,4.207a.345.345,0,0,1-.077.2,1.343,1.343,0,0,1-.2.216,1.385,1.385,0,0,1-.249.179.457.457,0,0,1-.2.072h-6.113a.677.677,0,0,1-.24-.053,1.108,1.108,0,0,1-.257-.144,1.418,1.418,0,0,1-.214-.2.443.443,0,0,1-.111-.2,5.013,5.013,0,0,1-.068-.818q-.017-.585-.017-1.249t.017-1.277c.011-.408.017-.719.017-.935a.643.643,0,0,1,.154-.368.942.942,0,0,1,.291-.279.617.617,0,0,1,.249-.117,1.2,1.2,0,0,0,.248-.081Zm-5.736.863a.462.462,0,0,0-.291.107.315.315,0,0,0-.137.252l.017,3.272a.275.275,0,0,0,.1.189.818.818,0,0,0,.171.135h5.12a1.3,1.3,0,0,0,.146-.01,1.584,1.584,0,0,0,.162-.027.452.452,0,0,0,.205-.189.511.511,0,0,0,.1-.278l-.017-3.147a.249.249,0,0,0-.1-.18.722.722,0,0,0-.188-.125Zm.188-6.527.856,3.631h2.825l.856-3.631Z" transform="translate(-121.766 -40.623)" fill="#fff"/>
    <path id="Path_113" data-name="Path 113" d="M252.642,45.843c-.058.048-.112.1-.162.144a.257.257,0,0,1-.18.072l-.137-.036a3,3,0,0,1-.274-.243l-.531-.494q-.292-.27-.54-.5c-.165-.155-.271-.251-.316-.287l-10.873.468a.373.373,0,0,1-.257-.216,2.7,2.7,0,0,1,.051-.5l.206-.09,1.883-.09q.565-.468,1.071-.962t1-1.034l-4.127-.053a.182.182,0,0,1-.162-.1.485.485,0,0,1-.068-.225.612.612,0,0,1,.042-.261.334.334,0,0,1,.154-.188l6.181-.018a1.7,1.7,0,0,0,.008-.306c-.005-.119-.008-.245-.008-.377a1.041,1.041,0,0,1,.051-.333.316.316,0,0,1,.189-.206.793.793,0,0,1,.437.09.434.434,0,0,1,.171.252,1.208,1.208,0,0,1,.025.387q-.017.225-.017.458l5.856.054a.123.123,0,0,1,.12.09,1.671,1.671,0,0,0,.069.162,1.6,1.6,0,0,1-.086.468l-.205.09h-7.466a12.972,12.972,0,0,1-.925,1.007q-.48.467-.993.934c.16,0,.314,0,.462.009a3.85,3.85,0,0,0,.463-.009l5.839-.233.017-.018a6.288,6.288,0,0,0-.565-.494,2.4,2.4,0,0,1-.514-.549.41.41,0,0,1,.24-.414h.342q.411.342.908.719t.967.773q.472.4.908.81a5.382,5.382,0,0,1,.745.863.226.226,0,0,1,.069.2A.577.577,0,0,1,252.642,45.843Zm-2.466,5.52-8.339-.054-.069,2.409a.462.462,0,0,1-.394.216,2.19,2.19,0,0,1-.265-.125.3.3,0,0,1-.129-.288L241,46.634a.765.765,0,0,1,.154-.4,1.428,1.428,0,0,1,.291-.342,1.333,1.333,0,0,1,.249-.108,1.01,1.01,0,0,1,.265-.072l8.134.037a.61.61,0,0,1,.282.09,1.112,1.112,0,0,1,.292.234,1.6,1.6,0,0,1,.214.306.633.633,0,0,1,.086.287v5.843a1.168,1.168,0,0,1-.18.62,1.1,1.1,0,0,1-.488.44,1.664,1.664,0,0,1-.7.279,3.558,3.558,0,0,1-.8.036,5.045,5.045,0,0,1-.8-.117,6.122,6.122,0,0,1-.736-.216.3.3,0,0,1-.249-.279.806.806,0,0,1,.078-.386q.1-.216.479-.153t.839.153a3.918,3.918,0,0,0,.916.072.825.825,0,0,0,.693-.377.969.969,0,0,0,.129-.423c.016-.174.025-.344.025-.512Zm-.034-3.273c0-.047,0-.149.009-.306a3.6,3.6,0,0,0-.018-.494,1.733,1.733,0,0,0-.111-.476.289.289,0,0,0-.274-.216l-7.431-.018a.38.38,0,0,0-.36.18,1.044,1.044,0,0,0-.128.414,2.747,2.747,0,0,0-.009.494c.011.174.017.315.017.422Zm0,2.338V48.972h-8.3v1.456Z" transform="translate(-169.588 -40)" fill="#fff"/>
    <path id="Path_114" data-name="Path 114" d="M318.378,53.975c-.034.048-.069.093-.1.135a.578.578,0,0,1-.137.117c-.1,0-.2,0-.283-.009a.313.313,0,0,1-.214-.1l-.12-.234V50.542l-4.965-.072a.476.476,0,0,1-.257-.09,1.4,1.4,0,0,1-.248-.207.936.936,0,0,1-.18-.27.662.662,0,0,1-.069-.261l.034-6.2a.619.619,0,0,1,.265-.521,2.745,2.745,0,0,1,.506-.306l4.9-.018.052-2.067c0-.108.074-.182.223-.225a.568.568,0,0,1,.411.027q.188.036.188.341v.413q0,.216.017.521v.971l5.017.036a.38.38,0,0,1,.223.091,1.931,1.931,0,0,1,.24.216,1.008,1.008,0,0,1,.188.278.653.653,0,0,1,.068.243v6.311a.447.447,0,0,1-.077.233.93.93,0,0,1-.206.234,1.923,1.923,0,0,1-.248.18.437.437,0,0,1-.223.072l-4.949.036ZM317.5,43.457h-4.4a.564.564,0,0,0-.257.108c-.115.072-.171.138-.171.2v5.573a.6.6,0,0,0,.308.288l4.52.018Zm5.445.018-4.521-.018v6.185h4.247a1,1,0,0,0,.377-.108.337.337,0,0,0,.24-.305V43.781A.751.751,0,0,0,322.95,43.475Z" transform="translate(-218.273 -40.185)" fill="#fff"/>
    <path id="Path_115" data-name="Path 115" d="M382.991,43.433a32.333,32.333,0,0,1-.325,4.648,44.863,44.863,0,0,1-.908,4.54.344.344,0,0,1-.265.117c-.121.006-.221.009-.3.009a.573.573,0,0,1-.223-.432,1.343,1.343,0,0,1,.094-.467c.063-.168.122-.33.18-.486q.462-2.067.7-4.036a33.872,33.872,0,0,0,.24-4.09l.291-.216A.486.486,0,0,1,382.991,43.433Zm1.969-1.618a1.212,1.212,0,0,1,.462.108l.12.144.034,10.644a.512.512,0,0,0,.163.323.665.665,0,0,0,.3.216,5,5,0,0,0,.915.162,13.951,13.951,0,0,0,1.4.081q.753.009,1.49-.045a5.053,5.053,0,0,0,1.216-.216.841.841,0,0,0,.514-.359,1.938,1.938,0,0,0,.137-.647q.017-.288.026-.656t.025-.737q.017-.368.043-.7a3.587,3.587,0,0,1,.077-.548.267.267,0,0,1,.163-.1.734.734,0,0,1,.231-.018.356.356,0,0,1,.205.082.225.225,0,0,1,.086.179l-.017,3.236a.9.9,0,0,1-.248.567,1.62,1.62,0,0,1-.454.4,3.967,3.967,0,0,1-1.353.351q-.736.063-1.4.063-.292,0-.839-.009c-.366-.006-.739-.021-1.122-.045a10,10,0,0,1-1.087-.125,1.9,1.9,0,0,1-.719-.234,1.247,1.247,0,0,1-.454-.665,2.708,2.708,0,0,1-.145-.827l.034-10.356a.22.22,0,0,1,.077-.162A1.423,1.423,0,0,1,384.961,41.815Zm3.955,7.606a37.646,37.646,0,0,0-.359-4.081,29.237,29.237,0,0,0-.873-4.027c-.012-.048-.023-.1-.034-.144a.36.36,0,0,1,.249-.386.521.521,0,0,1,.454.045l.069.108c.022.036.045.078.069.126a4.108,4.108,0,0,1,.205.674q.119.494.24,1.051c.079.372.152.732.214,1.079s.112.593.146.737q.137,1.223.265,2.391t.2,2.373a.349.349,0,0,1-.094.234.4.4,0,0,1-.231.135.477.477,0,0,1-.283-.036A.47.47,0,0,1,388.916,49.421Zm5.308,3.074a.812.812,0,0,1-.231-.072.338.338,0,0,1-.163-.162,47.284,47.284,0,0,0-.634-4.692,30.34,30.34,0,0,0-1.216-4.513.678.678,0,0,1,.086-.368.333.333,0,0,1,.223-.162.382.382,0,0,1,.266.044.561.561,0,0,1,.214.234,2.371,2.371,0,0,1,.171.431,3.689,3.689,0,0,0,.154.432q.376,1.2.685,2.373a16.554,16.554,0,0,1,.445,2.445l.394,3.38a.646.646,0,0,1-.008.225.689.689,0,0,1-.06.225A.39.39,0,0,1,394.224,52.5Z" transform="translate(-264.671 -40.503)" fill="#fff"/>
  </g>
  <g id="Group_20" data-name="Group 20" transform="translate(0 17.363)">
    <path id="Path_116" data-name="Path 116" d="M31.738,98.291q-.186.085-.337.16a3.278,3.278,0,0,1-.395.156,3.889,3.889,0,0,1-.449.116,2.753,2.753,0,0,1-.534.048,2.932,2.932,0,0,1-1-.162,2.018,2.018,0,0,1-.781-.507,2.323,2.323,0,0,1-.508-.86,3.659,3.659,0,0,1-.183-1.211,3.615,3.615,0,0,1,.176-1.17,2.4,2.4,0,0,1,.508-.872,2.121,2.121,0,0,1,.778-.527,2.718,2.718,0,0,1,1.011-.181,3.292,3.292,0,0,1,.812.1,4.167,4.167,0,0,1,.9.363v.836h-.05a2.964,2.964,0,0,0-.827-.534,2.31,2.31,0,0,0-.877-.167,1.748,1.748,0,0,0-.69.13,1.513,1.513,0,0,0-.547.4,1.881,1.881,0,0,0-.364.675,3.085,3.085,0,0,0-.13.941,2.86,2.86,0,0,0,.144.96,1.956,1.956,0,0,0,.371.655,1.473,1.473,0,0,0,.554.39,1.788,1.788,0,0,0,.669.126,2.361,2.361,0,0,0,.908-.175,2.581,2.581,0,0,0,.792-.522h.047Z" transform="translate(-27.554 -93.104)" fill="#fff"/>
    <path id="Path_117" data-name="Path 117" d="M48.671,99.426H45.882a1.763,1.763,0,0,0,.105.639,1.21,1.21,0,0,0,.288.446,1.141,1.141,0,0,0,.418.256,1.6,1.6,0,0,0,.534.085,2.029,2.029,0,0,0,.778-.162,1.9,1.9,0,0,0,.557-.318H48.6v.73a5.235,5.235,0,0,1-.657.238,2.563,2.563,0,0,1-.7.1,1.971,1.971,0,0,1-1.471-.536,2.074,2.074,0,0,1-.529-1.521,2.254,2.254,0,0,1,.507-1.548,1.694,1.694,0,0,1,1.333-.572,1.491,1.491,0,0,1,1.181.47,1.948,1.948,0,0,1,.415,1.334Zm-.621-.513A1.219,1.219,0,0,0,47.8,98.1a.947.947,0,0,0-.757-.288,1.076,1.076,0,0,0-.815.316,1.261,1.261,0,0,0-.344.786Z" transform="translate(-39.414 -95.772)" fill="#fff"/>
    <path id="Path_118" data-name="Path 118" d="M64.828,101.343h-.637V99.08a4.079,4.079,0,0,0-.031-.514.978.978,0,0,0-.112-.375.525.525,0,0,0-.244-.223,1,1,0,0,0-.414-.072,1.273,1.273,0,0,0-.545.135,2.779,2.779,0,0,0-.546.345v2.967h-.637V97.369H62.3v.441a2.555,2.555,0,0,1,.617-.406,1.551,1.551,0,0,1,.653-.146,1.148,1.148,0,0,1,.936.387,1.71,1.71,0,0,1,.322,1.117Z" transform="translate(-50.434 -95.772)" fill="#fff"/>
    <path id="Path_119" data-name="Path 119" d="M79.174,99.205a3.381,3.381,0,0,1-.391.082,2.592,2.592,0,0,1-.378.031,1.139,1.139,0,0,1-.881-.327,1.519,1.519,0,0,1-.3-1.049V95.829h-.43v-.562h.43V94.125h.637v1.142h1.315v.562H77.86V97.64c0,.208,0,.371.014.489a.83.83,0,0,0,.094.329.469.469,0,0,0,.205.208.916.916,0,0,0,.4.066,1.194,1.194,0,0,0,.325-.048,2.272,2.272,0,0,0,.244-.08h.034Z" transform="translate(-60.583 -93.67)" fill="#fff"/>
    <path id="Path_120" data-name="Path 120" d="M92.042,99.426H89.253a1.756,1.756,0,0,0,.106.639,1.205,1.205,0,0,0,.287.446,1.142,1.142,0,0,0,.419.256,1.6,1.6,0,0,0,.533.085,2.029,2.029,0,0,0,.778-.162,1.9,1.9,0,0,0,.557-.318h.034v.73a5.236,5.236,0,0,1-.657.238,2.564,2.564,0,0,1-.7.1,1.971,1.971,0,0,1-1.471-.536,2.074,2.074,0,0,1-.529-1.521,2.254,2.254,0,0,1,.507-1.548,1.694,1.694,0,0,1,1.333-.572,1.491,1.491,0,0,1,1.181.47,1.948,1.948,0,0,1,.415,1.334Zm-.621-.513a1.219,1.219,0,0,0-.252-.814.947.947,0,0,0-.757-.288,1.075,1.075,0,0,0-.815.316,1.26,1.26,0,0,0-.344.786Z" transform="translate(-68.507 -95.772)" fill="#fff"/>
    <path id="Path_121" data-name="Path 121" d="M107.4,98.323h-.034a2.36,2.36,0,0,0-.276-.052,2.845,2.845,0,0,0-.317-.015,1.261,1.261,0,0,0-.569.137,2.616,2.616,0,0,0-.529.354v2.821h-.637V97.594h.637v.587a3.123,3.123,0,0,1,.669-.454,1.4,1.4,0,0,1,.592-.133,2.193,2.193,0,0,1,.24.009c.049.006.124.017.224.034Z" transform="translate(-79.527 -95.997)" fill="#fff"/>
    <path id="Path_122" data-name="Path 122" d="M128.78,93.425h-.034c-.07-.021-.162-.043-.275-.066a1.558,1.558,0,0,0-.3-.034.8.8,0,0,0-.595.19.991.991,0,0,0-.185.689v.135h1.149V94.9h-1.128v3.412h-.637V94.9h-.431v-.562h.431v-.132a1.592,1.592,0,0,1,.335-1.087,1.228,1.228,0,0,1,.969-.379,3.149,3.149,0,0,1,.385.021c.114.014.219.031.313.05Z" transform="translate(-93.824 -92.742)" fill="#fff"/>
    <path id="Path_123" data-name="Path 123" d="M140.7,99.358a2.3,2.3,0,0,1-.474,1.533,1.723,1.723,0,0,1-2.547,0,2.726,2.726,0,0,1,0-3.069,1.72,1.72,0,0,1,2.547,0A2.31,2.31,0,0,1,140.7,99.358Zm-.657,0a1.879,1.879,0,0,0-.288-1.148,1.045,1.045,0,0,0-1.6,0,2.407,2.407,0,0,0,0,2.281,1.025,1.025,0,0,0,1.6,0A1.864,1.864,0,0,0,140.041,99.358Z" transform="translate(-101.107 -95.772)" fill="#fff"/>
    <path id="Path_124" data-name="Path 124" d="M156.23,98.323H156.2a2.369,2.369,0,0,0-.276-.052,2.85,2.85,0,0,0-.317-.015,1.26,1.26,0,0,0-.569.137,2.6,2.6,0,0,0-.529.354v2.821h-.637V97.594h.637v.587a3.114,3.114,0,0,1,.669-.454,1.4,1.4,0,0,1,.592-.133,2.2,2.2,0,0,1,.24.009c.049.006.124.017.223.034Z" transform="translate(-112.286 -95.997)" fill="#fff"/>
    <path id="Path_125" data-name="Path 125" d="M178.761,94.2h-1.8v4.671h-.671V94.2h-1.8v-.626h4.276Z" transform="translate(-126.115 -93.3)" fill="#fff"/>
    <path id="Path_126" data-name="Path 126" d="M192.793,99.426H190a1.763,1.763,0,0,0,.105.639,1.206,1.206,0,0,0,.288.446,1.141,1.141,0,0,0,.418.256,1.6,1.6,0,0,0,.534.085,2.028,2.028,0,0,0,.778-.162,1.9,1.9,0,0,0,.557-.318h.034v.73a5.221,5.221,0,0,1-.658.238,2.561,2.561,0,0,1-.7.1,1.971,1.971,0,0,1-1.471-.536,2.073,2.073,0,0,1-.529-1.521,2.254,2.254,0,0,1,.507-1.548,1.7,1.7,0,0,1,1.334-.572,1.491,1.491,0,0,1,1.181.47,1.95,1.95,0,0,1,.415,1.334Zm-.621-.513a1.223,1.223,0,0,0-.252-.814.948.948,0,0,0-.757-.288,1.076,1.076,0,0,0-.815.316,1.259,1.259,0,0,0-.344.786Z" transform="translate(-136.09 -95.772)" fill="#fff"/>
    <path id="Path_127" data-name="Path 127" d="M208.164,101.372h-.633v-.423c-.056.04-.133.1-.229.169a1.647,1.647,0,0,1-.28.173,1.875,1.875,0,0,1-.366.137,1.918,1.918,0,0,1-.485.055,1.18,1.18,0,0,1-.867-.356,1.231,1.231,0,0,1-.356-.908,1.3,1.3,0,0,1,.185-.731,1.245,1.245,0,0,1,.527-.44,2.746,2.746,0,0,1,.83-.217c.323-.038.67-.067,1.041-.085v-.1a.83.83,0,0,0-.076-.377.573.573,0,0,0-.219-.234.879.879,0,0,0-.325-.111,2.753,2.753,0,0,0-.4-.028,2.6,2.6,0,0,0-.559.069,4.183,4.183,0,0,0-.637.2h-.034v-.679q.187-.053.539-.118a3.9,3.9,0,0,1,.695-.064,3.061,3.061,0,0,1,.7.069,1.322,1.322,0,0,1,.513.236,1.046,1.046,0,0,1,.325.424,1.627,1.627,0,0,1,.112.644Zm-.633-.978V99.287q-.292.017-.686.053a3.408,3.408,0,0,0-.624.1,1.007,1.007,0,0,0-.444.254.76.76,0,0,0,.027.989.887.887,0,0,0,.6.173,1.373,1.373,0,0,0,.613-.137A2.729,2.729,0,0,0,207.53,100.394Z" transform="translate(-146.549 -95.801)" fill="#fff"/>
    <path id="Path_128" data-name="Path 128" d="M223.745,101.13a4.028,4.028,0,0,1-.6.249,2.026,2.026,0,0,1-.608.089,2.154,2.154,0,0,1-.752-.127,1.527,1.527,0,0,1-.586-.382,1.741,1.741,0,0,1-.383-.647,2.791,2.791,0,0,1-.136-.915,2.178,2.178,0,0,1,.51-1.53,1.742,1.742,0,0,1,1.346-.555,2.183,2.183,0,0,1,.639.1,3.273,3.273,0,0,1,.574.235v.744h-.034a2.391,2.391,0,0,0-.6-.366,1.574,1.574,0,0,0-.6-.128,1.046,1.046,0,0,0-.855.382,2.154,2.154,0,0,0-.007,2.227,1.039,1.039,0,0,0,.862.386,1.521,1.521,0,0,0,.393-.053,1.691,1.691,0,0,0,.359-.138,2.965,2.965,0,0,0,.261-.158,2.356,2.356,0,0,0,.193-.145h.034Z" transform="translate(-157.099 -95.808)" fill="#fff"/>
    <path id="Path_129" data-name="Path 129" d="M238.7,98.386h-.637V96.123a4.077,4.077,0,0,0-.031-.514.979.979,0,0,0-.112-.375.525.525,0,0,0-.244-.223,1,1,0,0,0-.414-.072,1.274,1.274,0,0,0-.545.135,2.789,2.789,0,0,0-.546.345v2.967h-.637V92.85h.637v2a2.561,2.561,0,0,1,.617-.406,1.55,1.55,0,0,1,.654-.146,1.149,1.149,0,0,1,.936.387,1.71,1.71,0,0,1,.322,1.117Z" transform="translate(-167.068 -92.814)" fill="#fff"/>
    <path id="Path_130" data-name="Path 130" d="M254.556,99.426h-2.789a1.762,1.762,0,0,0,.105.639,1.2,1.2,0,0,0,.288.446,1.14,1.14,0,0,0,.418.256,1.6,1.6,0,0,0,.534.085,2.028,2.028,0,0,0,.778-.162,1.9,1.9,0,0,0,.557-.318h.034v.73a5.232,5.232,0,0,1-.657.238,2.566,2.566,0,0,1-.7.1,1.971,1.971,0,0,1-1.471-.536,2.073,2.073,0,0,1-.529-1.521,2.253,2.253,0,0,1,.507-1.548,1.7,1.7,0,0,1,1.334-.572,1.491,1.491,0,0,1,1.181.47,1.95,1.95,0,0,1,.415,1.334Zm-.621-.513a1.221,1.221,0,0,0-.252-.814.947.947,0,0,0-.757-.288,1.076,1.076,0,0,0-.815.316,1.26,1.26,0,0,0-.344.786Z" transform="translate(-177.521 -95.772)" fill="#fff"/>
    <path id="Path_131" data-name="Path 131" d="M269.907,98.323h-.034a2.368,2.368,0,0,0-.276-.052,2.85,2.85,0,0,0-.317-.015,1.259,1.259,0,0,0-.569.137,2.606,2.606,0,0,0-.529.354v2.821h-.637V97.594h.637v.587a3.121,3.121,0,0,1,.669-.454,1.4,1.4,0,0,1,.592-.133,2.2,2.2,0,0,1,.24.009c.049.006.124.017.223.034Z" transform="translate(-188.54 -95.997)" fill="#fff"/>
    <path id="Path_132" data-name="Path 132" d="M293.543,98.871h-3.324v-5.3h3.324V94.2H290.89v1.451h2.653v.626H290.89v1.968h2.653Z" transform="translate(-203.749 -93.3)" fill="#fff"/>
    <path id="Path_133" data-name="Path 133" d="M308.988,98.386h-.637v-.416a2.285,2.285,0,0,1-.573.388,1.514,1.514,0,0,1-.647.139,1.262,1.262,0,0,1-1.075-.548,2.541,2.541,0,0,1-.4-1.519,2.724,2.724,0,0,1,.138-.9,2.1,2.1,0,0,1,.371-.673,1.576,1.576,0,0,1,.537-.413,1.491,1.491,0,0,1,.636-.142,1.938,1.938,0,0,1,.529.066,2.4,2.4,0,0,1,.484.205V92.85h.637Zm-.637-.978V95.127a2.3,2.3,0,0,0-.461-.167,2.015,2.015,0,0,0-.444-.046.988.988,0,0,0-.834.392,1.8,1.8,0,0,0-.3,1.109,2.053,2.053,0,0,0,.23,1.077.807.807,0,0,0,.739.368,1.315,1.315,0,0,0,.549-.126A2.292,2.292,0,0,0,308.351,97.408Z" transform="translate(-214.104 -92.814)" fill="#fff"/>
    <path id="Path_134" data-name="Path 134" d="M325.723,101.568h-.637v-.441a3.06,3.06,0,0,1-.617.409,1.475,1.475,0,0,1-.651.143,1.166,1.166,0,0,1-.929-.382,1.669,1.669,0,0,1-.332-1.123V97.594h.637v2.263a4.257,4.257,0,0,0,.027.517,1,1,0,0,0,.115.368.557.557,0,0,0,.238.227.988.988,0,0,0,.423.071,1.3,1.3,0,0,0,.54-.135,2.522,2.522,0,0,0,.547-.345V97.594h.637Z" transform="translate(-225.442 -95.997)" fill="#fff"/>
    <path id="Path_135" data-name="Path 135" d="M341.281,101.13a4.011,4.011,0,0,1-.6.249,2.024,2.024,0,0,1-.608.089,2.157,2.157,0,0,1-.752-.127,1.526,1.526,0,0,1-.586-.382,1.741,1.741,0,0,1-.383-.647,2.8,2.8,0,0,1-.136-.915,2.178,2.178,0,0,1,.51-1.53,1.743,1.743,0,0,1,1.347-.555,2.185,2.185,0,0,1,.639.1,3.282,3.282,0,0,1,.574.235v.744h-.034a2.4,2.4,0,0,0-.6-.366,1.576,1.576,0,0,0-.6-.128,1.047,1.047,0,0,0-.856.382,2.154,2.154,0,0,0-.007,2.227,1.039,1.039,0,0,0,.863.386,1.523,1.523,0,0,0,.393-.053,1.7,1.7,0,0,0,.359-.138,2.985,2.985,0,0,0,.261-.158,2.372,2.372,0,0,0,.193-.145h.034Z" transform="translate(-235.942 -95.808)" fill="#fff"/>
    <path id="Path_136" data-name="Path 136" d="M355.454,101.372h-.634v-.423c-.056.04-.133.1-.229.169a1.641,1.641,0,0,1-.279.173,1.877,1.877,0,0,1-.366.137,1.918,1.918,0,0,1-.485.055,1.18,1.18,0,0,1-.867-.356,1.231,1.231,0,0,1-.356-.908,1.3,1.3,0,0,1,.185-.731,1.247,1.247,0,0,1,.527-.44,2.751,2.751,0,0,1,.83-.217c.323-.038.67-.067,1.04-.085v-.1a.829.829,0,0,0-.076-.377.574.574,0,0,0-.219-.234.877.877,0,0,0-.325-.111,2.748,2.748,0,0,0-.4-.028,2.6,2.6,0,0,0-.559.069,4.208,4.208,0,0,0-.637.2h-.034v-.679q.187-.053.539-.118a3.9,3.9,0,0,1,.695-.064,3.06,3.06,0,0,1,.7.069,1.322,1.322,0,0,1,.513.236,1.044,1.044,0,0,1,.325.424,1.627,1.627,0,0,1,.112.644Zm-.634-.978V99.287q-.292.017-.686.053a3.408,3.408,0,0,0-.625.1,1,1,0,0,0-.444.254.76.76,0,0,0,.027.989.888.888,0,0,0,.6.173,1.372,1.372,0,0,0,.613-.137A2.731,2.731,0,0,0,354.82,100.394Z" transform="translate(-245.351 -95.801)" fill="#fff"/>
    <path id="Path_137" data-name="Path 137" d="M369.906,99.205a3.372,3.372,0,0,1-.391.082,2.584,2.584,0,0,1-.378.031,1.14,1.14,0,0,1-.881-.327,1.521,1.521,0,0,1-.3-1.049V95.829h-.43v-.562h.43V94.125h.637v1.142h1.314v.562h-1.314V97.64q0,.312.014.489a.83.83,0,0,0,.094.329.467.467,0,0,0,.206.208.915.915,0,0,0,.4.066,1.2,1.2,0,0,0,.326-.048,2.257,2.257,0,0,0,.244-.08h.034Z" transform="translate(-255.605 -93.67)" fill="#fff"/>
    <path id="Path_138" data-name="Path 138" d="M380.769,94.16h-.718v-.694h.718Zm-.04,4.639h-.637V94.825h.637Z" transform="translate(-264.008 -93.228)" fill="#fff"/>
    <path id="Path_139" data-name="Path 139" d="M391.674,99.358a2.3,2.3,0,0,1-.475,1.533,1.723,1.723,0,0,1-2.547,0,2.728,2.728,0,0,1,0-3.069,1.72,1.72,0,0,1,2.547,0A2.31,2.31,0,0,1,391.674,99.358Zm-.658,0a1.882,1.882,0,0,0-.287-1.148,1.045,1.045,0,0,0-1.6,0,2.406,2.406,0,0,0,0,2.281,1.025,1.025,0,0,0,1.6,0A1.864,1.864,0,0,0,391.016,99.358Z" transform="translate(-269.461 -95.772)" fill="#fff"/>
    <path id="Path_140" data-name="Path 140" d="M408.008,101.343h-.637V99.08a4.062,4.062,0,0,0-.031-.514.975.975,0,0,0-.112-.375.525.525,0,0,0-.244-.223,1,1,0,0,0-.414-.072,1.273,1.273,0,0,0-.545.135,2.783,2.783,0,0,0-.546.345v2.967h-.637V97.369h.637v.441a2.555,2.555,0,0,1,.617-.406,1.551,1.551,0,0,1,.654-.146,1.148,1.148,0,0,1,.936.387,1.71,1.71,0,0,1,.322,1.117Z" transform="translate(-280.638 -95.772)" fill="#fff"/>
  </g>
</svg>
