<?xml version="1.0" encoding="utf-8"?>
<!-- Generator: Adobe Illustrator 19.0.0, SVG Export Plug-In . SVG Version: 6.00 Build 0)  -->
<svg version="1.1" id="圖層_1" focusable="false" xmlns="http://www.w3.org/2000/svg" xmlns:xlink="http://www.w3.org/1999/xlink"
	 x="0px" y="0px" viewBox="274 7 30 30" style="enable-background:new 274 7 30 30;" xml:space="preserve">
<style type="text/css">
	.st0{fill:#FFFFFF;}
</style>
<path class="st0" d="M289,7c-8.3,0-15,6.7-15,15s6.7,15,15,15s15-6.7,15-15S297.3,7,289,7z M289,12.8c2.9,0,5.3,2.4,5.3,5.3
	s-2.4,5.3-5.3,5.3s-5.3-2.4-5.3-5.3S286.1,12.8,289,12.8z M289,33.6c-3.6,0-6.7-1.6-8.9-4.1c1.1-2.1,3.4-3.6,6-3.6
	c0.1,0,0.3,0,0.4,0.1c0.8,0.3,1.6,0.4,2.5,0.4s1.7-0.2,2.5-0.4c0.1,0,0.3-0.1,0.4-0.1c2.6,0,4.8,1.5,6,3.6
	C295.7,32,292.6,33.6,289,33.6z"/>
</svg>
